<svg width="290" height="291" viewBox="0 0 290 291" fill="none" xmlns="http://www.w3.org/2000/svg">
<rect x="90" width="110" height="291" fill="#032C62"/>
<rect y="201" width="111" height="290" transform="rotate(-90 0 201)" fill="#032C62"/>
<path d="M16.7095 74L1.98923 18.3015H12.8902L22.9159 62.6216L34.6922 18.3015H45.9114L57.3694 62.6216L67.3951 18.3015H78.3757L63.2575 74H51.163L40.1029 32.7036L28.7245 74H16.7095Z" fill="#B5211D"/>
<path d="M226.411 74V18.3015H246.86C251.316 18.3015 254.976 19.0707 257.841 20.6091C260.758 22.0943 262.933 24.1366 264.365 26.7359C265.797 29.2821 266.514 32.1201 266.514 35.2498C266.514 38.6447 265.612 41.7479 263.808 44.5594C262.058 47.3708 259.299 49.4131 255.533 50.6862L267.071 74H255.374L245.03 52.0389H236.596V74H226.411ZM236.596 44.5594H246.223C249.618 44.5594 252.112 43.7372 253.703 42.0927C255.294 40.4483 256.09 38.2734 256.09 35.5681C256.09 32.9158 255.294 30.7939 253.703 29.2025C252.165 27.6111 249.645 26.8155 246.144 26.8155H236.596V44.5594Z" fill="#B5211D"/>
<path d="M10.4107 276V220.302H22.5052L40.2492 255.63L57.7544 220.302H69.8489V276H59.6641V237.568L44.1481 268.043H36.1116L20.5956 237.568V276H10.4107Z" fill="#B5211D"/>
<path d="M246.634 276.955C241.011 276.955 236.184 275.761 232.153 273.374C228.121 270.934 225.018 267.566 222.843 263.269C220.668 258.919 219.581 253.906 219.581 248.23C219.581 242.554 220.668 237.542 222.843 233.192C225.018 228.842 228.121 225.447 232.153 223.007C236.184 220.567 241.011 219.347 246.634 219.347C253.318 219.347 258.782 221.018 263.025 224.36C267.322 227.648 270.001 232.29 271.062 238.284H259.843C259.153 235.261 257.668 232.9 255.387 231.203C253.159 229.452 250.188 228.577 246.475 228.577C241.33 228.577 237.298 230.327 234.38 233.828C231.463 237.329 230.004 242.13 230.004 248.23C230.004 254.331 231.463 259.131 234.38 262.632C237.298 266.08 241.33 267.804 246.475 267.804C250.188 267.804 253.159 267.009 255.387 265.417C257.668 263.773 259.153 261.518 259.843 258.654H271.062C270.001 264.383 267.322 268.865 263.025 272.101C258.782 275.337 253.318 276.955 246.634 276.955Z" fill="#B5211D"/>
</svg>
